<svg width="64" height="100" viewBox="0 0 64 100" fill="none" xmlns="http://www.w3.org/2000/svg">
<path d="M51.0838 0V73.1005H0V18.5134L18.5167 0H51.0838Z" fill="white"/>
<path d="M18.5167 0V18.5134H0L18.5167 0Z" fill="#2A199D"/>
<path d="M25.5415 41.8291C29.0885 41.8291 31.961 38.955 31.961 35.4097C31.961 31.8644 29.0885 28.9902 25.5415 28.9902C21.9945 28.9902 19.1221 31.8644 19.1221 35.4097C19.1221 38.955 21.9945 41.8291 25.5415 41.8291Z" fill="#2A199D"/>
<path d="M34.025 54.3823H17.0586L23.4915 34.8984H27.5921L34.025 54.3823Z" fill="#2A199D"/>
<path d="M1.386 95.041V84.653H2.38V95.041H1.386ZM8.15577 95.111C5.99977 95.111 4.40377 93.543 4.40377 91.359C4.40377 89.175 5.99977 87.621 8.15577 87.621C10.3118 87.621 11.8938 89.175 11.8938 91.359C11.8938 93.543 10.3118 95.111 8.15577 95.111ZM8.15577 94.229C9.72377 94.229 10.8858 93.081 10.8858 91.359C10.8858 89.637 9.72377 88.489 8.15577 88.489C6.58777 88.489 5.41177 89.637 5.41177 91.359C5.41177 93.081 6.58777 94.229 8.15577 94.229ZM16.9751 95.111C14.7771 95.111 13.1811 93.557 13.1811 91.359C13.1811 89.161 14.7771 87.621 16.9751 87.621C18.2211 87.621 19.2711 88.111 19.8591 89.077L19.1171 89.581C18.6131 88.839 17.8291 88.489 16.9751 88.489C15.3651 88.489 14.1891 89.637 14.1891 91.359C14.1891 93.095 15.3651 94.229 16.9751 94.229C17.8291 94.229 18.6131 93.893 19.1171 93.151L19.8591 93.655C19.2711 94.607 18.2211 95.111 16.9751 95.111ZM27.4004 95.041L24.4324 91.345L22.6964 92.941V95.041H21.7024V84.653H22.6964V91.695L27.0924 87.677H28.3244L25.1744 90.687L28.6184 95.041H27.4004ZM30.3453 95.111C29.9393 95.111 29.6033 94.775 29.6033 94.341C29.6033 93.907 29.9393 93.585 30.3453 93.585C30.7513 93.585 31.1013 93.907 31.1013 94.341C31.1013 94.775 30.7513 95.111 30.3453 95.111ZM38.735 84.653H39.729V95.041H38.777V93.585C38.175 94.579 37.153 95.111 35.935 95.111C33.835 95.111 32.267 93.585 32.267 91.359C32.267 89.133 33.835 87.621 35.935 87.621C37.111 87.621 38.119 88.125 38.735 89.077V84.653ZM36.019 94.229C37.573 94.229 38.749 93.081 38.749 91.359C38.749 89.637 37.573 88.489 36.019 88.489C34.451 88.489 33.275 89.637 33.275 91.359C33.275 93.081 34.451 94.229 36.019 94.229ZM45.0733 87.621C46.9773 87.621 48.0553 88.573 48.0553 90.477V95.041H47.1033V93.893C46.6553 94.649 45.7873 95.111 44.5693 95.111C42.9033 95.111 41.8813 94.243 41.8813 92.969C41.8813 91.835 42.6093 90.883 44.7233 90.883H47.0613V90.435C47.0613 89.175 46.3473 88.489 44.9753 88.489C44.0233 88.489 43.1273 88.825 42.5253 89.357L42.0773 88.615C42.8193 87.985 43.9113 87.621 45.0733 87.621ZM44.7233 94.327C45.8433 94.327 46.6693 93.795 47.0613 92.829V91.625H44.7513C43.3233 91.625 42.8613 92.185 42.8613 92.941C42.8613 93.795 43.5473 94.327 44.7233 94.327ZM54.2831 93.879L54.6331 94.593C54.2411 94.943 53.6531 95.111 53.0791 95.111C51.6931 95.111 50.9231 94.327 50.9231 92.969V88.517H49.6071V87.677H50.9231V86.067H51.9171V87.677H54.1571V88.517H51.9171V92.913C51.9171 93.781 52.3651 94.257 53.1911 94.257C53.5971 94.257 54.0031 94.131 54.2831 93.879ZM59.0186 87.621C60.9226 87.621 62.0006 88.573 62.0006 90.477V95.041H61.0486V93.893C60.6006 94.649 59.7326 95.111 58.5146 95.111C56.8486 95.111 55.8266 94.243 55.8266 92.969C55.8266 91.835 56.5546 90.883 58.6686 90.883H61.0066V90.435C61.0066 89.175 60.2926 88.489 58.9206 88.489C57.9686 88.489 57.0726 88.825 56.4706 89.357L56.0226 88.615C56.7646 87.985 57.8566 87.621 59.0186 87.621ZM58.6686 94.327C59.7886 94.327 60.6146 93.795 61.0066 92.829V91.625H58.6966C57.2686 91.625 56.8066 92.185 56.8066 92.941C56.8066 93.795 57.4926 94.327 58.6686 94.327Z" fill="white"/>
</svg>
