<svg width="20" height="13" viewBox="0 0 20 13" fill="none" xmlns="http://www.w3.org/2000/svg">
<path fill-rule="evenodd" clip-rule="evenodd" d="M10 11.175C7.23875 11.175 5 9.0258 5 6.375C5 3.7242 7.23875 1.575 10 1.575C12.7612 1.575 15 3.7242 15 6.375C15 9.0258 12.7612 11.175 10 11.175ZM10 0.375C4.4775 0.375 0 5.175 0 6.375C0 7.575 4.4775 12.375 10 12.375C15.5225 12.375 20 7.575 20 6.375C20 5.175 15.5225 0.375 10 0.375ZM10 3.975C8.61875 3.975 7.5 5.049 7.5 6.375C7.5 7.701 8.61875 8.775 10 8.775C11.38 8.775 12.5 7.701 12.5 6.375C12.5 5.049 11.38 3.975 10 3.975Z" fill="#CBCBCB"/>
</svg>
