<svg width="18" height="15" viewBox="0 0 18 15" fill="none" xmlns="http://www.w3.org/2000/svg">
<path fill-rule="evenodd" clip-rule="evenodd" d="M15.4008 4.36183C15.407 4.51359 15.4105 4.66624 15.4105 4.81978C15.4105 9.49032 11.9027 14.875 5.48781 14.875C3.51807 14.875 1.68488 14.2903 0.140625 13.2878C0.41371 13.3199 0.6912 13.3369 0.973095 13.3369C2.6072 13.3369 4.11093 12.7718 5.30458 11.8238C3.77794 11.7952 2.49004 10.7731 2.04694 9.36891C2.25924 9.41087 2.47771 9.43318 2.70234 9.43318C3.02035 9.43318 3.32868 9.38944 3.62114 9.3091C2.02579 8.98416 0.824219 7.55586 0.824219 5.84369C0.824219 5.82852 0.824219 5.81334 0.824219 5.79906C1.29463 6.06329 1.83199 6.22219 2.40371 6.24094C1.46817 5.60713 0.852409 4.52519 0.852409 3.29954C0.852409 2.65145 1.02419 2.04442 1.32458 1.5222C3.04502 3.66018 5.61466 5.06795 8.51289 5.21524C8.45387 4.95636 8.42304 4.68677 8.42304 4.40915C8.42304 2.45773 9.98403 0.875 11.9106 0.875C12.914 0.875 13.8204 1.30438 14.4565 1.99175C15.2511 1.83285 15.9972 1.53916 16.6711 1.13388C16.4112 1.95872 15.858 2.65145 15.1374 3.08886C15.843 3.00406 16.5152 2.81391 17.1406 2.53272C16.6729 3.24151 16.0818 3.86371 15.4008 4.36183Z" fill="black"/>
</svg>
