<svg width="21" height="15" viewBox="0 0 21 15" fill="none" xmlns="http://www.w3.org/2000/svg">
<path fill-rule="evenodd" clip-rule="evenodd" d="M8.07562 10.4567L8.075 4.86407L13.4788 7.67004L8.07562 10.4567ZM19.9406 3.89495C19.9406 3.89495 19.745 2.52338 19.1456 1.91939C18.385 1.1263 17.5325 1.12257 17.1419 1.07654C14.3431 0.875 10.145 0.875 10.145 0.875H10.1362C10.1362 0.875 5.93812 0.875 3.13937 1.07654C2.74813 1.12257 1.89625 1.1263 1.135 1.91939C0.535625 2.52338 0.340625 3.89495 0.340625 3.89495C0.340625 3.89495 0.140625 5.506 0.140625 7.11644V8.62672C0.140625 10.2378 0.340625 11.8482 0.340625 11.8482C0.340625 11.8482 0.535625 13.2198 1.135 13.8238C1.89625 14.6169 2.89563 14.592 3.34063 14.6747C4.94063 14.8277 10.1406 14.875 10.1406 14.875C10.1406 14.875 14.3431 14.8688 17.1419 14.6672C17.5325 14.6206 18.385 14.6169 19.1456 13.8238C19.745 13.2198 19.9406 11.8482 19.9406 11.8482C19.9406 11.8482 20.1406 10.2378 20.1406 8.62672V7.11644C20.1406 5.506 19.9406 3.89495 19.9406 3.89495Z" fill="black"/>
</svg>
