<svg width="30" height="30" viewBox="0 0 30 30" fill="none" xmlns="http://www.w3.org/2000/svg">
<g clip-path="url(#clip0_773_466)">
<path d="M15.7891 0.11377C17.4068 0.118083 18.2279 0.126711 18.9368 0.146843L19.2158 0.156909C19.5379 0.168413 19.8557 0.182793 20.2396 0.200048C21.7696 0.271947 22.8136 0.513529 23.7296 0.86871C24.6787 1.23396 25.4782 1.72862 26.2777 2.5267C27.0089 3.24554 27.5747 4.11508 27.9357 5.07481C28.2909 5.9908 28.5325 7.03478 28.6044 8.56623C28.6216 8.94873 28.636 9.26652 28.6475 9.59007L28.6561 9.86904C28.6777 10.5765 28.6863 11.3976 28.6892 13.0153L28.6906 14.0881V15.9718C28.6942 17.0207 28.6831 18.0696 28.6576 19.1181L28.6489 19.3971C28.6374 19.7207 28.6231 20.0384 28.6058 20.4209C28.5339 21.9524 28.2894 22.9949 27.9357 23.9124C27.5757 24.8726 27.0098 25.7424 26.2777 26.4605C25.5587 27.1914 24.6892 27.7572 23.7296 28.1185C22.8136 28.4736 21.7696 28.7152 20.2396 28.7871C19.8984 28.8032 19.5571 28.8176 19.2158 28.8303L18.9368 28.8389C18.2279 28.859 17.4068 28.8691 15.7891 28.872L14.7163 28.8734H12.834C11.7847 28.877 10.7353 28.866 9.68627 28.8403L9.40731 28.8317C9.06594 28.8188 8.72466 28.8039 8.38346 28.7871C6.85345 28.7152 5.80947 28.4736 4.89204 28.1185C3.93243 27.7581 3.06324 27.1922 2.34538 26.4605C1.61351 25.7419 1.0472 24.8723 0.685946 23.9124C0.330765 22.9964 0.0891834 21.9524 0.0172843 20.4209C0.0012635 20.0797 -0.0131164 19.7385 -0.0258551 19.3971L-0.0330448 19.1181C-0.0595439 18.0696 -0.0715283 17.0207 -0.0689945 15.9718V13.0153C-0.0730079 11.9665 -0.0624615 10.9176 -0.0373588 9.86904L-0.027293 9.59007C-0.0157891 9.26652 -0.00140934 8.94873 0.0158464 8.56623C0.0877455 7.03478 0.329326 5.99224 0.684508 5.07481C1.04561 4.1141 1.61304 3.24429 2.34682 2.5267C3.0645 1.79545 3.93312 1.22962 4.89204 0.86871C5.80947 0.513529 6.85201 0.271947 8.38346 0.200048C8.76597 0.182793 9.0852 0.168413 9.40731 0.156909L9.68627 0.148281C10.7348 0.122732 11.7837 0.111706 12.8326 0.115207L15.7891 0.11377ZM14.3108 7.30368C12.4039 7.30368 10.5752 8.06118 9.22679 9.40955C7.87842 10.7579 7.12091 12.5867 7.12091 14.4936C7.12091 16.4005 7.87842 18.2293 9.22679 19.5776C10.5752 20.926 12.4039 21.6835 14.3108 21.6835C16.2177 21.6835 18.0465 20.926 19.3949 19.5776C20.7432 18.2293 21.5007 16.4005 21.5007 14.4936C21.5007 12.5867 20.7432 10.7579 19.3949 9.40955C18.0465 8.06118 16.2177 7.30368 14.3108 7.30368ZM14.3108 10.1796C14.8773 10.1795 15.4383 10.291 15.9618 10.5077C16.4852 10.7245 16.9608 11.0421 17.3615 11.4427C17.7621 11.8432 18.08 12.3187 18.2968 12.842C18.5137 13.3654 18.6254 13.9264 18.6255 14.4929C18.6256 15.0594 18.5141 15.6204 18.2974 16.1438C18.0807 16.6672 17.763 17.1428 17.3625 17.5435C16.962 17.9442 16.4864 18.262 15.9631 18.4789C15.4397 18.6958 14.8788 18.8074 14.3123 18.8075C13.1681 18.8075 12.0709 18.353 11.2618 17.544C10.4528 16.735 9.99832 15.6377 9.99832 14.4936C9.99832 13.3495 10.4528 12.2522 11.2618 11.4432C12.0709 10.6341 13.1681 10.1796 14.3123 10.1796M21.8617 5.14671C21.3849 5.14671 20.9278 5.33608 20.5907 5.67317C20.2536 6.01027 20.0642 6.46746 20.0642 6.94418C20.0642 7.4209 20.2536 7.8781 20.5907 8.21519C20.9278 8.55228 21.3849 8.74166 21.8617 8.74166C22.3384 8.74166 22.7956 8.55228 23.1327 8.21519C23.4698 7.8781 23.6591 7.4209 23.6591 6.94418C23.6591 6.46746 23.4698 6.01027 23.1327 5.67317C22.7956 5.33608 22.3384 5.14671 21.8617 5.14671Z" fill="#2D2D2D"/>
</g>
<defs>
<clipPath id="clip0_773_466">
<rect width="28.7611" height="28.7611" fill="white" transform="translate(0.311035 0.494629)"/>
</clipPath>
</defs>
</svg>
