<svg width="30" height="30" viewBox="0 0 30 30" fill="none" xmlns="http://www.w3.org/2000/svg">
<g clip-path="url(#clip0_773_465)">
<path d="M25.9844 0.11377C26.8319 0.11377 27.6448 0.450456 28.2441 1.04976C28.8434 1.64907 29.1801 2.4619 29.1801 3.30945V25.6792C29.1801 26.5267 28.8434 27.3396 28.2441 27.9389C27.6448 28.5382 26.8319 28.8749 25.9844 28.8749H3.61462C2.76708 28.8749 1.95424 28.5382 1.35494 27.9389C0.755632 27.3396 0.418945 26.5267 0.418945 25.6792V3.30945C0.418945 2.4619 0.755632 1.64907 1.35494 1.04976C1.95424 0.450456 2.76708 0.11377 3.61462 0.11377H25.9844ZM25.1855 24.8803V16.4117C25.1855 15.0302 24.6367 13.7053 23.6598 12.7284C22.6829 11.7516 21.358 11.2028 19.9765 11.2028C18.6183 11.2028 17.0365 12.0337 16.2695 13.28V11.5064H11.8115V24.8803H16.2695V17.0029C16.2695 15.7726 17.2602 14.766 18.4905 14.766C19.0838 14.766 19.6528 15.0016 20.0723 15.4212C20.4918 15.8407 20.7275 16.4096 20.7275 17.0029V24.8803H25.1855ZM6.61856 8.99776C7.3305 8.99776 8.01328 8.71494 8.5167 8.21152C9.02012 7.70811 9.30293 7.02533 9.30293 6.31339C9.30293 4.8274 8.10455 3.61304 6.61856 3.61304C5.90239 3.61304 5.21554 3.89754 4.70913 4.40395C4.20271 4.91037 3.91821 5.59721 3.91821 6.31339C3.91821 7.79938 5.13257 8.99776 6.61856 8.99776ZM8.83956 24.8803V11.5064H4.41354V24.8803H8.83956Z" fill="#2D2D2D"/>
</g>
<defs>
<clipPath id="clip0_773_465">
<rect width="28.7611" height="28.7611" fill="white" transform="translate(0.799805 0.494629)"/>
</clipPath>
</defs>
</svg>
